<mxfile host="app.diagrams.net" agent="Mozilla/5.0 (Windows NT 10.0; Win64; x64) AppleWebKit/537.36 (KHTML, like Gecko) Chrome/128.0.0.0 Safari/537.36" version="24.7.8">
  <diagram name="Page-1" id="VgzbV7Suwo_WoZZM5DPc">
    <mxGraphModel dx="1221" dy="759" grid="0" gridSize="10" guides="1" tooltips="1" connect="1" arrows="1" fold="1" page="1" pageScale="1" pageWidth="850" pageHeight="1100" math="0" shadow="0">
      <root>
        <mxCell id="0" />
        <mxCell id="1" parent="0" />
        <mxCell id="bK9OJNw2U_fX5N2ZKN2Z-1" value="&lt;b&gt;&lt;font style=&quot;font-size: 18px;&quot;&gt;MINIO&lt;/font&gt;&lt;/b&gt;" style="rounded=0;whiteSpace=wrap;html=1;" vertex="1" parent="1">
          <mxGeometry x="10" y="10" width="820" height="60" as="geometry" />
        </mxCell>
        <mxCell id="bK9OJNw2U_fX5N2ZKN2Z-2" value="&lt;b&gt;&lt;font style=&quot;font-size: 18px;&quot;&gt;NODE RED&lt;/font&gt;&lt;/b&gt;" style="rounded=0;whiteSpace=wrap;html=1;" vertex="1" parent="1">
          <mxGeometry x="10" y="134" width="120" height="60" as="geometry" />
        </mxCell>
        <mxCell id="bK9OJNw2U_fX5N2ZKN2Z-3" value="&lt;b&gt;&lt;font style=&quot;font-size: 18px;&quot;&gt;KAFKA&lt;/font&gt;&lt;/b&gt;" style="rounded=0;whiteSpace=wrap;html=1;" vertex="1" parent="1">
          <mxGeometry x="168" y="250" width="120" height="60" as="geometry" />
        </mxCell>
        <mxCell id="bK9OJNw2U_fX5N2ZKN2Z-4" value="&lt;b&gt;&lt;font style=&quot;font-size: 18px;&quot;&gt;OPENWHISK&lt;/font&gt;&lt;/b&gt;" style="rounded=0;whiteSpace=wrap;html=1;" vertex="1" parent="1">
          <mxGeometry x="348" y="250" width="190" height="60" as="geometry" />
        </mxCell>
        <mxCell id="bK9OJNw2U_fX5N2ZKN2Z-15" value="" style="endArrow=classic;html=1;rounded=0;" edge="1" parent="1" source="bK9OJNw2U_fX5N2ZKN2Z-2" target="bK9OJNw2U_fX5N2ZKN2Z-1">
          <mxGeometry relative="1" as="geometry">
            <mxPoint x="64" y="182" as="sourcePoint" />
            <mxPoint x="360" y="90" as="targetPoint" />
          </mxGeometry>
        </mxCell>
        <mxCell id="bK9OJNw2U_fX5N2ZKN2Z-17" value="&lt;b&gt;&lt;font style=&quot;font-size: 12px;&quot;&gt;(1) Image upload&lt;/font&gt;&lt;/b&gt;" style="edgeLabel;html=1;align=center;verticalAlign=middle;resizable=0;points=[];" vertex="1" connectable="0" parent="bK9OJNw2U_fX5N2ZKN2Z-15">
          <mxGeometry x="0.0182" y="-7" relative="1" as="geometry">
            <mxPoint x="-8" y="-5" as="offset" />
          </mxGeometry>
        </mxCell>
        <mxCell id="bK9OJNw2U_fX5N2ZKN2Z-21" value="" style="endArrow=classic;html=1;rounded=0;" edge="1" parent="1" source="bK9OJNw2U_fX5N2ZKN2Z-1" target="bK9OJNw2U_fX5N2ZKN2Z-3">
          <mxGeometry relative="1" as="geometry">
            <mxPoint x="300" y="500" as="sourcePoint" />
            <mxPoint x="400" y="500" as="targetPoint" />
          </mxGeometry>
        </mxCell>
        <mxCell id="bK9OJNw2U_fX5N2ZKN2Z-44" value="&lt;b&gt;&lt;font style=&quot;font-size: 12px;&quot;&gt;(2) Bucket notification&lt;/font&gt;&lt;/b&gt;" style="edgeLabel;html=1;align=center;verticalAlign=middle;resizable=0;points=[];" vertex="1" connectable="0" parent="bK9OJNw2U_fX5N2ZKN2Z-21">
          <mxGeometry x="0.0329" y="4" relative="1" as="geometry">
            <mxPoint as="offset" />
          </mxGeometry>
        </mxCell>
        <mxCell id="bK9OJNw2U_fX5N2ZKN2Z-25" value="&lt;b&gt;&lt;font style=&quot;font-size: 18px;&quot;&gt;NODE RED&lt;/font&gt;&lt;/b&gt;" style="rounded=0;whiteSpace=wrap;html=1;" vertex="1" parent="1">
          <mxGeometry x="197" y="397" width="140" height="60" as="geometry" />
        </mxCell>
        <mxCell id="bK9OJNw2U_fX5N2ZKN2Z-26" value="" style="endArrow=classic;html=1;rounded=0;" edge="1" parent="1" source="bK9OJNw2U_fX5N2ZKN2Z-25" target="bK9OJNw2U_fX5N2ZKN2Z-4">
          <mxGeometry relative="1" as="geometry">
            <mxPoint x="310" y="520" as="sourcePoint" />
            <mxPoint x="410" y="520" as="targetPoint" />
          </mxGeometry>
        </mxCell>
        <mxCell id="bK9OJNw2U_fX5N2ZKN2Z-27" value="&lt;b&gt;&lt;font style=&quot;font-size: 12px;&quot;&gt;(4) Invoke action&lt;/font&gt;&lt;/b&gt;" style="edgeLabel;resizable=0;html=1;;align=center;verticalAlign=middle;" connectable="0" vertex="1" parent="bK9OJNw2U_fX5N2ZKN2Z-26">
          <mxGeometry relative="1" as="geometry" />
        </mxCell>
        <mxCell id="bK9OJNw2U_fX5N2ZKN2Z-32" value="" style="endArrow=classic;html=1;rounded=0;entryX=0.531;entryY=1.006;entryDx=0;entryDy=0;entryPerimeter=0;exitX=0.616;exitY=0.033;exitDx=0;exitDy=0;exitPerimeter=0;" edge="1" parent="1" source="bK9OJNw2U_fX5N2ZKN2Z-4">
          <mxGeometry relative="1" as="geometry">
            <mxPoint x="465" y="245" as="sourcePoint" />
            <mxPoint x="486.3500000000001" y="75.00000000000001" as="targetPoint" />
          </mxGeometry>
        </mxCell>
        <mxCell id="bK9OJNw2U_fX5N2ZKN2Z-33" value="&lt;b&gt;(6) Upload resized image&lt;/b&gt;" style="edgeLabel;resizable=0;html=1;;align=center;verticalAlign=middle;" connectable="0" vertex="1" parent="bK9OJNw2U_fX5N2ZKN2Z-32">
          <mxGeometry relative="1" as="geometry">
            <mxPoint x="34" y="-13" as="offset" />
          </mxGeometry>
        </mxCell>
        <mxCell id="bK9OJNw2U_fX5N2ZKN2Z-37" value="" style="endArrow=classic;html=1;rounded=0;" edge="1" parent="1" source="bK9OJNw2U_fX5N2ZKN2Z-1" target="bK9OJNw2U_fX5N2ZKN2Z-4">
          <mxGeometry relative="1" as="geometry">
            <mxPoint x="270" y="460" as="sourcePoint" />
            <mxPoint x="370" y="460" as="targetPoint" />
          </mxGeometry>
        </mxCell>
        <mxCell id="bK9OJNw2U_fX5N2ZKN2Z-40" value="&lt;b&gt;&lt;font style=&quot;font-size: 12px;&quot;&gt;(5) Get image&lt;/font&gt;&lt;/b&gt;" style="edgeLabel;resizable=0;html=1;;align=center;verticalAlign=middle;" connectable="0" vertex="1" parent="1">
          <mxGeometry x="411.0032445402356" y="122.9954985764061" as="geometry">
            <mxPoint x="-5" y="-1" as="offset" />
          </mxGeometry>
        </mxCell>
        <mxCell id="bK9OJNw2U_fX5N2ZKN2Z-42" value="" style="endArrow=classic;html=1;rounded=0;" edge="1" parent="1" source="bK9OJNw2U_fX5N2ZKN2Z-3" target="bK9OJNw2U_fX5N2ZKN2Z-25">
          <mxGeometry relative="1" as="geometry">
            <mxPoint x="188" y="280" as="sourcePoint" />
            <mxPoint x="360" y="290" as="targetPoint" />
          </mxGeometry>
        </mxCell>
        <mxCell id="bK9OJNw2U_fX5N2ZKN2Z-43" value="&lt;b&gt;&lt;font style=&quot;font-size: 12px;&quot;&gt;(3) Consumer&lt;/font&gt;&lt;/b&gt;" style="edgeLabel;resizable=0;html=1;;align=center;verticalAlign=middle;" connectable="0" vertex="1" parent="bK9OJNw2U_fX5N2ZKN2Z-42">
          <mxGeometry relative="1" as="geometry" />
        </mxCell>
        <mxCell id="bK9OJNw2U_fX5N2ZKN2Z-46" value="&lt;b&gt;&lt;font style=&quot;font-size: 18px;&quot;&gt;NODE RED&lt;/font&gt;&lt;/b&gt;" style="rounded=0;whiteSpace=wrap;html=1;" vertex="1" parent="1">
          <mxGeometry x="623" y="337" width="120" height="60" as="geometry" />
        </mxCell>
        <mxCell id="bK9OJNw2U_fX5N2ZKN2Z-47" value="" style="endArrow=classic;html=1;rounded=0;entryX=0.614;entryY=0.072;entryDx=0;entryDy=0;entryPerimeter=0;" edge="1" parent="1" target="bK9OJNw2U_fX5N2ZKN2Z-46">
          <mxGeometry relative="1" as="geometry">
            <mxPoint x="574" y="72" as="sourcePoint" />
            <mxPoint x="765.1414285714287" y="335" as="targetPoint" />
          </mxGeometry>
        </mxCell>
        <mxCell id="bK9OJNw2U_fX5N2ZKN2Z-48" value="&lt;b&gt;&lt;font style=&quot;font-size: 12px;&quot;&gt;(7) Bucket Webhook&lt;/font&gt;&lt;/b&gt;" style="edgeLabel;html=1;align=center;verticalAlign=middle;resizable=0;points=[];" vertex="1" connectable="0" parent="bK9OJNw2U_fX5N2ZKN2Z-47">
          <mxGeometry x="0.0329" y="4" relative="1" as="geometry">
            <mxPoint as="offset" />
          </mxGeometry>
        </mxCell>
      </root>
    </mxGraphModel>
  </diagram>
</mxfile>
